<svg xmlns="http://www.w3.org/2000/svg" width="33" height="26" viewBox="0 0 33 26"><g fill="none"><path fill="#FFF" d="M9.982 25.791v-1.648a.961.961 0 0 0-.287-.754 1.016 1.016 0 0 0-.77-.287 1.052 1.052 0 0 0-.949.467.997.997 0 0 0-.89-.467.899.899 0 0 0-.79.39v-.324h-.587v2.623H6.3v-1.453a.602.602 0 0 1 .16-.501.638.638 0 0 1 .5-.197c.39 0 .587.247.587.692v1.46h.592v-1.454a.608.608 0 0 1 .162-.5.643.643 0 0 1 .498-.198c.4 0 .592.247.592.692v1.46h.59zm3.3-1.31v-1.31h-.593v.318a1.032 1.032 0 0 0-.846-.385c-.779 0-1.41.615-1.41 1.374 0 .759.631 1.374 1.41 1.374.33.012.645-.131.846-.385v.319h.587l.006-1.305zm-2.18 0a.807.807 0 0 1 .844-.747.803.803 0 0 1 .784.806.805.805 0 0 1-.81.781.818.818 0 0 1-.603-.243.774.774 0 0 1-.221-.597h.006zm14.714-1.374c.193 0 .385.035.564.105.172.066.328.165.46.29.13.125.234.274.305.438.147.352.147.746 0 1.098-.07.164-.174.313-.305.437a1.415 1.415 0 0 1-.46.291c-.372.141-.784.141-1.156 0a1.34 1.34 0 0 1-.759-.728 1.424 1.424 0 0 1 0-1.098 1.34 1.34 0 0 1 .759-.728c.186-.076.385-.114.587-.113l.005.008zm0 .55a.895.895 0 0 0-.335.06.794.794 0 0 0-.268.173.802.802 0 0 0-.178.275.93.93 0 0 0 0 .681.8.8 0 0 0 .178.275.792.792 0 0 0 .268.173.94.94 0 0 0 .668 0 .81.81 0 0 0 .282-.173.794.794 0 0 0 .178-.275.93.93 0 0 0 0-.681.794.794 0 0 0-.178-.275.81.81 0 0 0-.282-.173.894.894 0 0 0-.338-.077l.005.017zm-9.347.824c0-.824-.525-1.374-1.278-1.374-.779.01-1.401.634-1.39 1.393.01.759.65 1.365 1.43 1.354.401.014.794-.117 1.103-.368l-.282-.423c-.223.174-.5.27-.785.275a.743.743 0 0 1-.806-.643h2c.008-.069.008-.137.008-.214zm-2.005-.231a.687.687 0 0 1 .708-.635.678.678 0 0 1 .476.181c.128.12.202.284.206.457l-1.39-.003zm4.473-.412a1.77 1.77 0 0 0-.846-.225c-.322 0-.514.115-.514.307 0 .193.204.226.457.259l.282.038c.587.082.942.324.942.786 0 .461-.45.857-1.226.857a1.98 1.98 0 0 1-1.165-.34l.282-.446c.259.187.574.284.897.275.4 0 .615-.115.615-.319 0-.148-.153-.23-.474-.275l-.282-.038c-.604-.082-.931-.346-.931-.775 0-.522.44-.84 1.128-.84.385-.013.766.082 1.097.274l-.262.462zm2.82-.148h-.956v1.184c0 .274.096.44.39.44.183-.007.361-.058.518-.15l.17.49c-.22.134-.474.204-.734.203-.693 0-.936-.362-.936-.972V23.69h-.547v-.522h.547v-.797h.592v.797h.956v.522zm2.028-.588c.143 0 .284.024.418.071l-.18.55a.976.976 0 0 0-.367-.066c-.384 0-.564.241-.564.675v1.47h-.587V23.18h.58v.318a.8.8 0 0 1 .712-.384l-.012-.011zm4.056 2.307a.289.289 0 0 1 .195.075.25.25 0 0 1 0 .368.283.283 0 0 1-.088.055.283.283 0 0 1-.361-.137.252.252 0 0 1 .06-.286.283.283 0 0 1 .18-.075h.014zm0 .465a.205.205 0 0 0 .147-.06.2.2 0 0 0-.065-.33.208.208 0 0 0-.164 0 .206.206 0 0 0-.067.043.2.2 0 0 0 0 .275c.04.04.093.06.15.06v.012zm.017-.327a.115.115 0 0 1 .074.022.068.068 0 0 1 .025.057.065.065 0 0 1-.02.05.1.1 0 0 1-.06.025l.083.09h-.065l-.076-.09h-.026v.09h-.053v-.253l.118.009zm-.062.046v.066h.062a.06.06 0 0 0 .034 0 .027.027 0 0 0 0-.024.027.027 0 0 0 0-.025.06.06 0 0 0-.034 0l-.062-.017z"/><path fill="#7673C0" d="M12.027 3.151h8.885v15.552h-8.885z"/><path fill="#EB001B" d="M12.59 10.929c-.003-3.036 1.428-5.904 3.879-7.778C12.306-.036 6.327.428 2.735 4.217a9.702 9.702 0 0 0 0 13.42c3.592 3.789 9.57 4.253 13.734 1.066-2.45-1.873-3.88-4.74-3.878-7.774z"/><path fill="#00A1DF" d="M32.896 10.929c-.001 3.785-2.22 7.238-5.716 8.893-3.496 1.654-7.655 1.22-10.711-1.119 2.45-1.875 3.88-4.741 3.88-7.776 0-3.034-1.43-5.9-3.88-7.776 3.056-2.34 7.216-2.775 10.713-1.12 3.497 1.654 5.716 5.108 5.716 8.895l-.002.003z"/></g></svg>