<svg xmlns="http://www.w3.org/2000/svg" width="33" height="26" viewBox="0 0 33 26"><g fill="none" fill-rule="evenodd"><path fill="#3BA336" d="M2.85 17.714H.043v-9.09H2.85c1.257 0 1.534.948 1.677 1.422l1.159 3.926c.021.076.045.127.113.13.068-.003.092-.054.114-.13l1.159-3.926c.143-.474.42-1.422 1.677-1.422h2.81v9.09H8.75v-5.35c-.05-.14-.249-.114-.28 0l-1.686 5.35H4.817l-1.685-5.35c-.033-.114-.231-.14-.281 0v5.35zm12.804-9.09h-2.809v9.09h2.81c.482 0 .766-.23 1.24-1.25l1.876-4.146c.032-.115.235-.14.285 0v5.396h2.81v-9.09h-2.81c-.632.033-.94.758-1.169 1.25l-1.952 4.1c-.032.114-.231.14-.28 0v-5.35zm7.58 4.147h8.826c-.297.881-1.32 2.03-2.9 2.03h-3.118v2.913h-2.809v-4.943z"/><path fill="#019AD7" d="M32.187 12.318h-4.654c-2.251 0-4.31-1.245-4.667-3.694h6.294c1.917 0 3.396 1.756 3.027 3.694z"/></g></svg>