<svg xmlns="http://www.w3.org/2000/svg" width="33" height="26" viewBox="0 0 33 26"><g fill="none"><path fill="#FFF" d="M5.776 25.78v-1.693a1.004 1.004 0 0 0-1.06-1.072 1.044 1.044 0 0 0-.948.48.99.99 0 0 0-.892-.48.891.891 0 0 0-.79.4v-.332H1.5v2.696h.592v-1.483a.632.632 0 0 1 .66-.717c.39 0 .587.254.587.711v1.5h.592v-1.494a.635.635 0 0 1 .66-.717c.4 0 .593.254.593.711v1.5l.592-.01zm8.763-2.697h-.964v-.818h-.593v.818h-.536v.536h.548v1.241c0 .626.242.998.936.998.26.001.513-.071.733-.208l-.169-.502a1.083 1.083 0 0 1-.519.152c-.282 0-.39-.18-.39-.451v-1.23h.96l-.006-.536zm5.004-.068a.795.795 0 0 0-.71.395v-.327h-.582v2.696h.587v-1.511c0-.446.191-.694.564-.694a.956.956 0 0 1 .366.068l.181-.565a1.255 1.255 0 0 0-.417-.073l.01.011zm-7.565.282a2.017 2.017 0 0 0-1.1-.282c-.682 0-1.128.328-1.128.863 0 .44.327.711.93.796l.283.04c.321.044.474.13.474.281 0 .21-.215.328-.615.328-.322.009-.638-.09-.897-.282l-.282.456c.342.239.75.362 1.168.35.778 0 1.23-.366 1.23-.88 0-.513-.356-.722-.943-.806l-.282-.04c-.254-.034-.457-.085-.457-.265s.192-.316.514-.316c.297.003.588.083.846.231l.26-.474zm15.713-.282a.795.795 0 0 0-.71.395v-.327h-.582v2.696h.587v-1.511c0-.446.192-.694.564-.694a.956.956 0 0 1 .367.068l.18-.565a1.255 1.255 0 0 0-.417-.073l.011.011zm-7.559 1.41a1.362 1.362 0 0 0 1.439 1.41 1.41 1.41 0 0 0 .97-.32l-.282-.474c-.203.154-.45.24-.705.242a.866.866 0 0 1 0-1.726c.255.003.502.088.705.242l.282-.473a1.41 1.41 0 0 0-.97-.322 1.362 1.362 0 0 0-1.439 1.41v.012zm5.495 0v-1.342h-.587v.327a1.024 1.024 0 0 0-.846-.395 1.41 1.41 0 1 0 0 2.82c.329.013.644-.134.846-.394v.327h.587v-1.342zm-2.183 0a.815.815 0 1 1 .818.864.81.81 0 0 1-.818-.863zm-7.08-1.41a1.41 1.41 0 0 0 .04 2.82c.405.022.804-.109 1.12-.366l-.283-.434a1.283 1.283 0 0 1-.784.282.747.747 0 0 1-.806-.66h2.002v-.226c0-.846-.525-1.41-1.28-1.41l-.009-.006zm0 .525a.668.668 0 0 1 .683.654h-1.41a.694.694 0 0 1 .716-.654h.011zm14.698.891V22h-.564v1.41a1.024 1.024 0 0 0-.846-.395 1.41 1.41 0 0 0 0 2.82c.329.013.644-.134.846-.394v.327h.564v-1.337zm.979.956a.282.282 0 0 1 .194.077.262.262 0 0 1-.087.434.265.265 0 0 1-.107.023.282.282 0 0 1-.254-.164.265.265 0 0 1 .059-.293.282.282 0 0 1 .203-.077h-.008zm0 .477a.2.2 0 0 0 .146-.062.209.209 0 0 0 0-.282.209.209 0 0 0-.146-.062.212.212 0 0 0-.15.062.209.209 0 0 0 0 .282c.02.02.042.035.068.045.028.012.059.018.09.017h-.008zm.016-.336a.113.113 0 0 1 .074.023.07.07 0 0 1 .025.06.068.068 0 0 1-.02.05.099.099 0 0 1-.059.025l.082.093h-.065l-.076-.093h-.025v.093h-.054v-.248l.118-.003zm-.062.048v.068h.062a.06.06 0 0 0 .034 0 .028.028 0 0 0 0-.025.028.028 0 0 0 0-.026.06.06 0 0 0-.034 0l-.062-.017zm-3.102-1.145a.815.815 0 1 1 .818.863.81.81 0 0 1-.818-.863zm-19.809 0v-1.348h-.586v.327a1.024 1.024 0 0 0-.846-.395 1.41 1.41 0 1 0 0 2.82c.329.013.644-.134.846-.394v.327h.586v-1.337zm-2.183 0a.815.815 0 1 1 .818.863.81.81 0 0 1-.823-.863H6.9z"/><path fill="#FF5F00" d="M12.029 3.214h8.885v15.967h-8.885z"/><path fill="#EB001B" d="M12.594 11.199a10.137 10.137 0 0 1 3.878-7.985 10.154 10.154 0 1 0 0 15.967 10.137 10.137 0 0 1-3.878-7.982z"/><path fill="#F79E1B" d="M32.901 11.199a10.154 10.154 0 0 1-16.43 7.982 10.154 10.154 0 0 0 0-15.967 10.154 10.154 0 0 1 16.43 7.982v.003z"/></g></svg>